<svg xmlns="http://www.w3.org/2000/svg" width="780" height="396" font-family="DejaVu Sans, Verdana, sans-serif" font-size="12.5" role="img" aria-label="Fig. 1 — Context kept after compaction (percent of original, nine sessions)">
<rect width="780" height="396" fill="#fff"/>
<text x="132" y="24" font-size="15" font-weight="bold" fill="#222">Fig. 1 — Context kept after compaction (percent of original, nine sessions)</text>
<text x="132" y="41" fill="#666">LLM summary  ·  Jev + lossless policy — scale 0..100%</text>
<line x1="132" y1="50" x2="132" y2="358" stroke="#ddd"/>
<text x="132" y="372" text-anchor="middle" fill="#888">0</text>
<line x1="279" y1="50" x2="279" y2="358" stroke="#ddd"/>
<text x="279" y="372" text-anchor="middle" fill="#888">25</text>
<line x1="426" y1="50" x2="426" y2="358" stroke="#ddd"/>
<text x="426" y="372" text-anchor="middle" fill="#888">50</text>
<line x1="573" y1="50" x2="573" y2="358" stroke="#ddd"/>
<text x="573" y="372" text-anchor="middle" fill="#888">75</text>
<line x1="720" y1="50" x2="720" y2="358" stroke="#ddd"/>
<text x="720" y="372" text-anchor="middle" fill="#888">100</text>
<text x="124" y="69" text-anchor="end" fill="#222">case-01 · 76.7 MiB</text>
<rect x="132" y="56" width="14.1" height="12" fill="#d98f8f"/>
<text x="151.1" y="66" fill="#555">2.4</text>
<rect x="132" y="72" width="444.5" height="12" fill="#8fbf9f"/>
<text x="581.5" y="82" fill="#555">75.6</text>
<text x="124" y="103" text-anchor="end" fill="#222">case-02 · 43.6 MiB</text>
<rect x="132" y="90" width="14.7" height="12" fill="#d98f8f"/>
<text x="151.7" y="100" fill="#555">2.5</text>
<rect x="132" y="106" width="586.8" height="12" fill="#8fbf9f"/>
<text x="723.8" y="116" fill="#555">99.8</text>
<text x="124" y="137" text-anchor="end" fill="#222">case-03 · 31.7 MiB</text>
<rect x="132" y="124" width="10.6" height="12" fill="#d98f8f"/>
<text x="147.6" y="134" fill="#555">1.8</text>
<rect x="132" y="140" width="546.3" height="12" fill="#8fbf9f"/>
<text x="683.3" y="150" fill="#555">92.9</text>
<text x="124" y="171" text-anchor="end" fill="#222">case-04 · 31 MiB</text>
<rect x="132" y="158" width="18.8" height="12" fill="#d98f8f"/>
<text x="155.8" y="168" fill="#555">3.2</text>
<rect x="132" y="174" width="558.6" height="12" fill="#8fbf9f"/>
<text x="695.6" y="184" fill="#555">95</text>
<text x="124" y="205" text-anchor="end" fill="#222">case-05 · 31 MiB</text>
<rect x="132" y="192" width="21.8" height="12" fill="#d98f8f"/>
<text x="158.8" y="202" fill="#555">3.7</text>
<rect x="132" y="208" width="559.8" height="12" fill="#8fbf9f"/>
<text x="696.8" y="218" fill="#555">95.2</text>
<text x="124" y="239" text-anchor="end" fill="#222">case-06 · 26.4 MiB</text>
<rect x="132" y="226" width="17.6" height="12" fill="#d98f8f"/>
<text x="154.6" y="236" fill="#555">3</text>
<rect x="132" y="242" width="588.0" height="12" fill="#8fbf9f"/>
<text x="725.0" y="252" fill="#555">100</text>
<text x="124" y="273" text-anchor="end" fill="#222">case-07 · 25.2 MiB</text>
<rect x="132" y="260" width="25.3" height="12" fill="#d98f8f"/>
<text x="162.3" y="270" fill="#555">4.3</text>
<rect x="132" y="276" width="585.1" height="12" fill="#8fbf9f"/>
<text x="722.1" y="286" fill="#555">99.5</text>
<text x="124" y="307" text-anchor="end" fill="#222">case-08 · 24.4 MiB</text>
<rect x="132" y="294" width="40.0" height="12" fill="#d98f8f"/>
<text x="177.0" y="304" fill="#555">6.8</text>
<rect x="132" y="310" width="573.3" height="12" fill="#8fbf9f"/>
<text x="710.3" y="320" fill="#555">97.5</text>
<text x="124" y="341" text-anchor="end" fill="#222">case-09 · 18.4 MiB</text>
<rect x="132" y="328" width="21.8" height="12" fill="#d98f8f"/>
<text x="158.8" y="338" fill="#555">3.7</text>
<rect x="132" y="344" width="565.7" height="12" fill="#8fbf9f"/>
<text x="702.7" y="354" fill="#555">96.2</text>
<text x="132" y="384" font-size="11" fill="#777">low bars = more pruned. The summary arm crushes to ~2–7 %; the policy arm keeps everything the invariants protect and prunes only proven duplicates.</text>
</svg>